<?xml version="1.0" encoding="UTF-8" standalone="no"?>
<!DOCTYPE svg PUBLIC "-//W3C//DTD SVG 1.1//EN"
 "http://www.w3.org/Graphics/SVG/1.1/DTD/svg11.dtd">
<!-- Generated by graphviz version 2.40.1 (20161225.0304)
 -->
<!-- Title: %3 Pages: 1 -->
<svg width="395pt" height="256pt"
 viewBox="0.00 0.00 395.00 256.39" xmlns="http://www.w3.org/2000/svg" xmlns:xlink="http://www.w3.org/1999/xlink">
<g id="graph0" class="graph" transform="scale(1 1) rotate(0) translate(4 252.3919)">
<title>%3</title>
<polygon fill="#ffffff" stroke="transparent" points="-4,4 -4,-252.3919 391,-252.3919 391,4 -4,4"/>
<!-- C0 -->
<g id="node1" class="node">
<title>C0</title>
<polygon fill="#d3d3d3" stroke="#000000" points="27,-248.3919 0,-248.3919 0,-230.3919 27,-230.3919 27,-248.3919"/>
<text text-anchor="middle" x="13.5" y="-237.1919" font-family="Times,serif" font-size="9.00" fill="#000000">C0</text>
</g>
<!-- Benign Or Malign -->
<g id="node10" class="node">
<title>Benign Or Malign</title>
<ellipse fill="#add8e6" stroke="#000000" cx="198.5" cy="-57.9828" rx="57.9655" ry="57.9655"/>
<text text-anchor="middle" x="198.5" y="-55.7828" font-family="Times,serif" font-size="9.00" fill="#000000">Benign Or Malign</text>
</g>
<!-- C0&#45;&gt;Benign Or Malign -->
<g id="edge28" class="edge">
<title>C0&#45;&gt;Benign Or Malign</title>
<path fill="none" stroke="#ff0000" stroke-width=".5441" d="M13.7976,-230.2246C14.7935,-213.1244 19.0871,-175.9286 37.5,-151.9655 62.1043,-119.9448 100.9693,-96.812 134.3496,-81.5097"/>
<polygon fill="#ff0000" stroke="#ff0000" stroke-width=".5441" points="135.884,-84.6579 143.6027,-77.4004 133.0428,-78.2604 135.884,-84.6579"/>
</g>
<!-- 337 -->
<g id="node11" class="node">
<title>337</title>
<ellipse fill="#ffffff" stroke="#000000" cx="223.5" cy="-173.1787" rx="21.4286" ry="21.4286"/>
<text text-anchor="middle" x="223.5" y="-170.9787" font-family="Times,serif" font-size="9.00" fill="#000000">337</text>
</g>
<!-- C0&#45;&gt;337 -->
<g id="edge1" class="edge">
<title>C0&#45;&gt;337</title>
<path fill="none" stroke="#00ff00" stroke-width=".2301" stroke-dasharray="1,5" d="M27.3905,-233.4817C30.0647,-232.4087 32.8562,-231.3327 35.5,-230.3919 90.441,-210.8416 155.8278,-191.892 193.2176,-181.4568"/>
<polygon fill="#00ff00" stroke="#00ff00" stroke-width=".2301" points="194.2887,-184.7919 202.989,-178.7459 192.4173,-178.0467 194.2887,-184.7919"/>
</g>
<!-- 338 -->
<g id="node12" class="node">
<title>338</title>
<ellipse fill="#ffffff" stroke="#000000" cx="87.5" cy="-173.1787" rx="21.4286" ry="21.4286"/>
<text text-anchor="middle" x="87.5" y="-170.9787" font-family="Times,serif" font-size="9.00" fill="#000000">338</text>
</g>
<!-- C0&#45;&gt;338 -->
<g id="edge2" class="edge">
<title>C0&#45;&gt;338</title>
<path fill="none" stroke="#ff0000" stroke-width=".2677" d="M23.7894,-230.1853C34.1471,-220.9175 50.4845,-206.2992 64.0218,-194.1864"/>
<polygon fill="#ff0000" stroke="#ff0000" stroke-width=".2677" points="66.484,-196.6799 71.6024,-187.4034 61.8163,-191.4633 66.484,-196.6799"/>
</g>
<!-- C1 -->
<g id="node2" class="node">
<title>C1</title>
<polygon fill="#d3d3d3" stroke="#000000" points="342,-248.3919 315,-248.3919 315,-230.3919 342,-230.3919 342,-248.3919"/>
<text text-anchor="middle" x="328.5" y="-237.1919" font-family="Times,serif" font-size="9.00" fill="#000000">C1</text>
</g>
<!-- C1&#45;&gt;Benign Or Malign -->
<g id="edge29" class="edge">
<title>C1&#45;&gt;Benign Or Malign</title>
<path fill="none" stroke="#ff0000" stroke-width=".4568" d="M334.3238,-230.3696C344.1995,-213.8237 361.8281,-177.9432 347.5,-151.9655 329.3508,-119.0598 294.299,-96.0908 262.7508,-81.1004"/>
<polygon fill="#ff0000" stroke="#ff0000" stroke-width=".4568" points="264.0808,-77.8601 253.5302,-76.8925 261.1746,-84.2283 264.0808,-77.8601"/>
</g>
<!-- C1&#45;&gt;337 -->
<g id="edge3" class="edge">
<title>C1&#45;&gt;337</title>
<path fill="none" stroke="#ff0000" stroke-width=".1948" d="M314.762,-231.5647C299.576,-222.8169 274.4856,-208.0796 253.5,-194.3919 252.0674,-193.4575 250.6059,-192.4862 249.1371,-191.4959"/>
<polygon fill="#ff0000" stroke="#ff0000" stroke-width=".1948" points="251.0163,-188.5402 240.7977,-185.7416 247.0407,-194.3017 251.0163,-188.5402"/>
</g>
<!-- 339 -->
<g id="node13" class="node">
<title>339</title>
<ellipse fill="#ffffff" stroke="#000000" cx="283.5" cy="-173.1787" rx="21.4286" ry="21.4286"/>
<text text-anchor="middle" x="283.5" y="-170.9787" font-family="Times,serif" font-size="9.00" fill="#000000">339</text>
</g>
<!-- C1&#45;&gt;339 -->
<g id="edge4" class="edge">
<title>C1&#45;&gt;339</title>
<path fill="none" stroke="#00ff00" stroke-width=".1589" d="M322.2429,-230.1853C316.793,-222.1662 308.6206,-210.1412 301.1844,-199.1997"/>
<polygon fill="#00ff00" stroke="#00ff00" stroke-width=".1589" points="303.9605,-197.0576 295.4447,-190.7542 298.171,-200.9923 303.9605,-197.0576"/>
</g>
<!-- C2 -->
<g id="node3" class="node">
<title>C2</title>
<polygon fill="#d3d3d3" stroke="#000000" points="72,-248.3919 45,-248.3919 45,-230.3919 72,-230.3919 72,-248.3919"/>
<text text-anchor="middle" x="58.5" y="-237.1919" font-family="Times,serif" font-size="9.00" fill="#000000">C2</text>
</g>
<!-- C2&#45;&gt;Benign Or Malign -->
<g id="edge30" class="edge">
<title>C2&#45;&gt;Benign Or Malign</title>
<path fill="none" stroke="#ff0000" stroke-width=".1838" d="M53.9886,-230.2855C46.4182,-213.6029 33.3117,-177.5084 47.5,-151.9655 66.0598,-118.5527 101.9742,-95.479 134.1213,-80.5578"/>
<polygon fill="#ff0000" stroke="#ff0000" stroke-width=".1838" points="135.8003,-83.6415 143.5108,-76.3752 132.9519,-77.2472 135.8003,-83.6415"/>
</g>
<!-- C2&#45;&gt;337 -->
<g id="edge5" class="edge">
<title>C2&#45;&gt;337</title>
<path fill="none" stroke="#ff0000" stroke-width=".1116" d="M72.4592,-233.6624C75.1271,-232.5727 77.8987,-231.4444 80.5,-230.3919 119.747,-214.5132 165.1475,-196.3906 194.0769,-184.8737"/>
<polygon fill="#ff0000" stroke="#ff0000" stroke-width=".1116" points="195.5882,-188.0393 203.5856,-181.09 193.0001,-181.5353 195.5882,-188.0393"/>
</g>
<!-- C2&#45;&gt;338 -->
<g id="edge6" class="edge">
<title>C2&#45;&gt;338</title>
<path fill="none" stroke="#ff0000" stroke-width=".5797" d="M62.5323,-230.1853C65.7403,-222.8607 70.412,-212.1943 74.8489,-202.0639"/>
<polygon fill="#ff0000" stroke="#ff0000" stroke-width=".5797" points="78.1695,-203.2062 78.9754,-192.6421 71.7575,-200.3979 78.1695,-203.2062"/>
</g>
<!-- C2&#45;&gt;339 -->
<g id="edge7" class="edge">
<title>C2&#45;&gt;339</title>
<path fill="none" stroke="#ff0000" stroke-width=".1183" d="M72.3262,-233.2872C75.0064,-232.2321 77.8165,-231.2125 80.5,-230.3919 155.6035,-207.4275 181.4831,-225.7203 253.5,-194.3919 255.0684,-193.7097 256.6373,-192.9376 258.1895,-192.1021"/>
<polygon fill="#ff0000" stroke="#ff0000" stroke-width=".1183" points="260.1022,-195.0346 266.7754,-186.8054 256.4269,-189.077 260.1022,-195.0346"/>
</g>
<!-- C3 -->
<g id="node4" class="node">
<title>C3</title>
<polygon fill="#d3d3d3" stroke="#000000" points="117,-248.3919 90,-248.3919 90,-230.3919 117,-230.3919 117,-248.3919"/>
<text text-anchor="middle" x="103.5" y="-237.1919" font-family="Times,serif" font-size="9.00" fill="#000000">C3</text>
</g>
<!-- C3&#45;&gt;Benign Or Malign -->
<g id="edge31" class="edge">
<title>C3&#45;&gt;Benign Or Malign</title>
<path fill="none" stroke="#ff0000" stroke-width=".1628" d="M89.7135,-230.5806C78.674,-222.6334 63.998,-209.8388 57.5,-194.3919 50.1884,-177.011 48.6019,-168.5902 57.5,-151.9655 74.107,-120.9383 105.9817,-98.3865 135.2291,-83.1643"/>
<polygon fill="#ff0000" stroke="#ff0000" stroke-width=".1628" points="136.8253,-86.2794 144.2017,-78.6742 133.6926,-80.0194 136.8253,-86.2794"/>
</g>
<!-- C3&#45;&gt;337 -->
<g id="edge8" class="edge">
<title>C3&#45;&gt;337</title>
<path fill="none" stroke="#ff0000" stroke-width=".5488" d="M117.2655,-231.7964C136.3716,-221.2541 171.3483,-201.9548 195.9355,-188.3882"/>
<polygon fill="#ff0000" stroke="#ff0000" stroke-width=".5488" points="197.7306,-191.3952 204.7953,-183.4995 194.3488,-185.2663 197.7306,-191.3952"/>
</g>
<!-- C3&#45;&gt;338 -->
<g id="edge9" class="edge">
<title>C3&#45;&gt;338</title>
<path fill="none" stroke="#ff0000" stroke-width=".1175" d="M101.2753,-230.1853C99.6056,-223.2755 97.2172,-213.3916 94.8968,-203.7893"/>
<polygon fill="#ff0000" stroke="#ff0000" stroke-width=".1175" points="98.2874,-202.9192 92.5364,-194.0211 91.4832,-204.5634 98.2874,-202.9192"/>
</g>
<!-- C3&#45;&gt;339 -->
<g id="edge10" class="edge">
<title>C3&#45;&gt;339</title>
<path fill="none" stroke="#ff0000" stroke-width=".5709" d="M117.3746,-233.4361C120.0503,-232.3673 122.8464,-231.3045 125.5,-230.3919 181.3835,-211.1728 200.1548,-219.8209 253.5,-194.3919 255.0439,-193.656 256.5935,-192.8415 258.1306,-191.973"/>
<polygon fill="#ff0000" stroke="#ff0000" stroke-width=".5709" points="260.0859,-194.8777 266.6721,-186.5788 256.3481,-188.9592 260.0859,-194.8777"/>
</g>
<!-- C4 -->
<g id="node5" class="node">
<title>C4</title>
<polygon fill="#d3d3d3" stroke="#000000" points="162,-248.3919 135,-248.3919 135,-230.3919 162,-230.3919 162,-248.3919"/>
<text text-anchor="middle" x="148.5" y="-237.1919" font-family="Times,serif" font-size="9.00" fill="#000000">C4</text>
</g>
<!-- C4&#45;&gt;Benign Or Malign -->
<g id="edge32" class="edge">
<title>C4&#45;&gt;Benign Or Malign</title>
<path fill="none" stroke="#ff0000" stroke-width=".3875" d="M151.0482,-230.1464C156.4349,-210.6025 169.3886,-163.6041 180.4028,-123.6426"/>
<polygon fill="#ff0000" stroke="#ff0000" stroke-width=".3875" points="183.7994,-124.4913 183.0824,-113.9207 177.051,-122.6312 183.7994,-124.4913"/>
</g>
<!-- C4&#45;&gt;337 -->
<g id="edge11" class="edge">
<title>C4&#45;&gt;337</title>
<path fill="none" stroke="#00ff00" stroke-width=".2104" d="M158.9284,-230.1853C169.4261,-220.9175 185.9843,-206.2992 199.7045,-194.1864"/>
<polygon fill="#00ff00" stroke="#00ff00" stroke-width=".2104" points="202.2074,-196.6456 207.3876,-187.4034 197.5746,-191.3979 202.2074,-196.6456"/>
</g>
<!-- C4&#45;&gt;338 -->
<g id="edge12" class="edge">
<title>C4&#45;&gt;338</title>
<path fill="none" stroke="#ff0000" stroke-width="1.0633" d="M140.0182,-230.1853C132.0387,-221.5238 119.7538,-208.189 109.0714,-196.5936"/>
<polygon fill="#ff0000" stroke="#ff0000" stroke-width="1.0633" points="111.3543,-193.906 102.0045,-188.9228 106.206,-198.649 111.3543,-193.906"/>
</g>
<!-- C4&#45;&gt;339 -->
<g id="edge13" class="edge">
<title>C4&#45;&gt;339</title>
<path fill="none" stroke="#ff0000" stroke-width=".3694" d="M162.1068,-233.7487C188.5565,-222.7517 245.0628,-199.1134 253.5,-194.3919 254.9925,-193.5567 256.5015,-192.6637 258.0071,-191.7343"/>
<polygon fill="#ff0000" stroke="#ff0000" stroke-width=".3694" points="260.0362,-194.5887 266.4554,-186.16 256.181,-188.746 260.0362,-194.5887"/>
</g>
<!-- C5 -->
<g id="node6" class="node">
<title>C5</title>
<polygon fill="#d3d3d3" stroke="#000000" points="207,-248.3919 180,-248.3919 180,-230.3919 207,-230.3919 207,-248.3919"/>
<text text-anchor="middle" x="193.5" y="-237.1919" font-family="Times,serif" font-size="9.00" fill="#000000">C5</text>
</g>
<!-- C5&#45;&gt;Benign Or Malign -->
<g id="edge33" class="edge">
<title>C5&#45;&gt;Benign Or Malign</title>
<path fill="none" stroke="#ff0000" stroke-width=".5198" d="M193.3395,-230.2013C193.0972,-214.269 192.7418,-180.4904 193.5,-151.9655 193.7231,-143.5715 194.0582,-134.7602 194.4512,-126.0375"/>
<polygon fill="#ff0000" stroke="#ff0000" stroke-width=".5198" points="197.9557,-126.0241 194.936,-115.8688 190.9637,-125.6907 197.9557,-126.0241"/>
</g>
<!-- C5&#45;&gt;337 -->
<g id="edge14" class="edge">
<title>C5&#45;&gt;337</title>
<path fill="none" stroke="#ff0000" stroke-width=".4506" d="M197.6714,-230.1853C200.99,-222.8607 205.8227,-212.1943 210.4126,-202.0639"/>
<polygon fill="#ff0000" stroke="#ff0000" stroke-width=".4506" points="213.7425,-203.1952 214.6815,-192.6421 207.3664,-200.3063 213.7425,-203.1952"/>
</g>
<!-- C5&#45;&gt;338 -->
<g id="edge15" class="edge">
<title>C5&#45;&gt;338</title>
<path fill="none" stroke="#ff0000" stroke-width=".9144" d="M179.6424,-230.7357C163.1195,-220.4146 135.1291,-202.9304 114.3242,-189.9345"/>
<polygon fill="#ff0000" stroke="#ff0000" stroke-width=".9144" points="115.956,-186.8271 105.6204,-184.4977 112.2475,-192.7641 115.956,-186.8271"/>
</g>
<!-- C5&#45;&gt;339 -->
<g id="edge16" class="edge">
<title>C5&#45;&gt;339</title>
<path fill="none" stroke="#ff0000" stroke-width=".6579" d="M206.0141,-230.1853C219.3404,-220.3811 240.8053,-204.5893 257.7676,-192.1101"/>
<polygon fill="#ff0000" stroke="#ff0000" stroke-width=".6579" points="260.1796,-194.6808 266.1604,-185.9355 256.0313,-189.0423 260.1796,-194.6808"/>
</g>
<!-- C6 -->
<g id="node7" class="node">
<title>C6</title>
<polygon fill="#d3d3d3" stroke="#000000" points="387,-248.3919 360,-248.3919 360,-230.3919 387,-230.3919 387,-248.3919"/>
<text text-anchor="middle" x="373.5" y="-237.1919" font-family="Times,serif" font-size="9.00" fill="#000000">C6</text>
</g>
<!-- C6&#45;&gt;Benign Or Malign -->
<g id="edge34" class="edge">
<title>C6&#45;&gt;Benign Or Malign</title>
<path fill="none" stroke="#ff0000" stroke-width=".4225" d="M374.9674,-230.3214C377.2048,-213.3826 379.6595,-176.445 363.5,-151.9655 340.2424,-116.7335 298.9662,-93.2326 263.5175,-78.5423"/>
<polygon fill="#ff0000" stroke="#ff0000" stroke-width=".4225" points="264.7559,-75.2682 254.1709,-74.8131 262.1618,-81.7698 264.7559,-75.2682"/>
</g>
<!-- C6&#45;&gt;337 -->
<g id="edge17" class="edge">
<title>C6&#45;&gt;337</title>
<path fill="none" stroke="#00ff00" stroke-width=".2498" d="M359.5647,-233.6021C356.8946,-232.518 354.1161,-231.4071 351.5,-230.3919 308.2418,-213.6046 294.5769,-215.9738 253.5,-194.3919 251.9859,-193.5964 250.4599,-192.7349 248.9411,-191.8298"/>
<polygon fill="#00ff00" stroke="#00ff00" stroke-width=".2498" points="250.7487,-188.8305 240.4537,-186.3276 246.9408,-194.7042 250.7487,-188.8305"/>
</g>
<!-- C6&#45;&gt;339 -->
<g id="edge18" class="edge">
<title>C6&#45;&gt;339</title>
<path fill="none" stroke="#00ff00" stroke-width=".3026" d="M360.9859,-230.1853C347.6596,-220.3811 326.1947,-204.5893 309.2324,-192.1101"/>
<polygon fill="#00ff00" stroke="#00ff00" stroke-width=".3026" points="310.9687,-189.0423 300.8396,-185.9355 306.8204,-194.6808 310.9687,-189.0423"/>
</g>
<!-- C7 -->
<g id="node8" class="node">
<title>C7</title>
<polygon fill="#d3d3d3" stroke="#000000" points="252,-248.3919 225,-248.3919 225,-230.3919 252,-230.3919 252,-248.3919"/>
<text text-anchor="middle" x="238.5" y="-237.1919" font-family="Times,serif" font-size="9.00" fill="#000000">C7</text>
</g>
<!-- C7&#45;&gt;Benign Or Malign -->
<g id="edge35" class="edge">
<title>C7&#45;&gt;Benign Or Malign</title>
<path fill="none" stroke="#ff0000" stroke-width=".5699" d="M252.2966,-233.1471C272.0408,-223.894 306.7292,-206.3504 313.5,-194.3919 322.7904,-177.9833 321.5796,-169.003 313.5,-151.9655 301.747,-127.1819 279.904,-106.767 258.3862,-91.3696"/>
<polygon fill="#ff0000" stroke="#ff0000" stroke-width=".5699" points="260.0815,-88.2877 249.8587,-85.5047 256.1147,-94.0553 260.0815,-88.2877"/>
</g>
<!-- C7&#45;&gt;337 -->
<g id="edge19" class="edge">
<title>C7&#45;&gt;337</title>
<path fill="none" stroke="#00ff00" stroke-width=".2288" d="M236.4143,-230.1853C234.849,-223.2755 232.6099,-213.3916 230.4345,-203.7893"/>
<polygon fill="#00ff00" stroke="#00ff00" stroke-width=".2288" points="233.8447,-203.0006 228.2216,-194.0211 227.0176,-204.5473 233.8447,-203.0006"/>
</g>
<!-- C7&#45;&gt;338 -->
<g id="edge20" class="edge">
<title>C7&#45;&gt;338</title>
<path fill="none" stroke="#ff0000" stroke-width=".1848" d="M224.8334,-233.3992C200.4905,-222.7248 149.1295,-200.2031 116.5799,-185.9302"/>
<polygon fill="#ff0000" stroke="#ff0000" stroke-width=".1848" points="117.6967,-182.5983 107.1329,-181.7877 114.8856,-189.009 117.6967,-182.5983"/>
</g>
<!-- C7&#45;&gt;339 -->
<g id="edge21" class="edge">
<title>C7&#45;&gt;339</title>
<path fill="none" stroke="#ff0000" stroke-width=".8192" stroke-dasharray="1,5" d="M244.7571,-230.1853C250.207,-222.1662 258.3794,-210.1412 265.8156,-199.1997"/>
<polygon fill="#ff0000" stroke="#ff0000" stroke-width=".8192" points="268.829,-200.9923 271.5553,-190.7542 263.0395,-197.0576 268.829,-200.9923"/>
</g>
<!-- C8 -->
<g id="node9" class="node">
<title>C8</title>
<polygon fill="#d3d3d3" stroke="#000000" points="297,-248.3919 270,-248.3919 270,-230.3919 297,-230.3919 297,-248.3919"/>
<text text-anchor="middle" x="283.5" y="-237.1919" font-family="Times,serif" font-size="9.00" fill="#000000">C8</text>
</g>
<!-- C8&#45;&gt;Benign Or Malign -->
<g id="edge36" class="edge">
<title>C8&#45;&gt;Benign Or Malign</title>
<path fill="none" stroke="#ff0000" stroke-width=".955" d="M297.1295,-230.9646C308.4519,-223.0869 323.7569,-210.1835 330.5,-194.3919 337.9048,-177.0505 339.141,-168.7252 330.5,-151.9655 315.6746,-123.2108 287.5316,-101.3249 261.0278,-85.9393"/>
<polygon fill="#ff0000" stroke="#ff0000" stroke-width=".955" points="262.5619,-82.7873 252.124,-80.9702 259.1506,-88.8998 262.5619,-82.7873"/>
</g>
<!-- C8&#45;&gt;337 -->
<g id="edge22" class="edge">
<title>C8&#45;&gt;337</title>
<path fill="none" stroke="#00ff00" stroke-width=".2042" d="M275.1573,-230.1853C267.3085,-221.5238 255.225,-208.189 244.7177,-196.5936"/>
<polygon fill="#00ff00" stroke="#00ff00" stroke-width=".2042" points="247.0752,-193.9828 237.7667,-188.9228 241.888,-198.6832 247.0752,-193.9828"/>
</g>
<!-- C8&#45;&gt;338 -->
<g id="edge23" class="edge">
<title>C8&#45;&gt;338</title>
<path fill="none" stroke="#ff0000" stroke-width=".3862" d="M269.5923,-233.5292C266.9196,-232.4518 264.1331,-231.362 261.5,-230.3919 211.5295,-211.9813 152.4755,-193.1742 117.607,-182.368"/>
<polygon fill="#ff0000" stroke="#ff0000" stroke-width=".3862" points="118.6076,-179.0139 108.0202,-179.4098 116.5436,-185.7028 118.6076,-179.0139"/>
</g>
<!-- C8&#45;&gt;339 -->
<g id="edge24" class="edge">
<title>C8&#45;&gt;339</title>
<path fill="none" stroke="#00ff00" stroke-width=".1385" d="M283.5,-230.1853C283.5,-223.5242 283.5,-214.0993 283.5,-204.8272"/>
<polygon fill="#00ff00" stroke="#00ff00" stroke-width=".1385" points="287.0001,-204.5791 283.5,-194.5791 280.0001,-204.5791 287.0001,-204.5791"/>
</g>
<!-- 337&#45;&gt;Benign Or Malign -->
<g id="edge25" class="edge">
<title>337&#45;&gt;Benign Or Malign</title>
<path fill="none" stroke="#00ff00" stroke-width=".4592" d="M218.9727,-152.3176C217.242,-144.3427 215.1613,-134.7552 212.9986,-124.7901"/>
<polygon fill="#00ff00" stroke="#00ff00" stroke-width=".4592" points="216.3599,-123.7751 210.8186,-114.745 209.5192,-125.2598 216.3599,-123.7751"/>
</g>
<!-- 338&#45;&gt;Benign Or Malign -->
<g id="edge26" class="edge">
<title>338&#45;&gt;Benign Or Malign</title>
<path fill="none" stroke="#ff0000" stroke-width=".3719" d="M102.47,-157.6429C114.9487,-144.6924 133.4382,-125.5039 150.8704,-107.4128"/>
<polygon fill="#ff0000" stroke="#ff0000" stroke-width=".3719" points="153.8376,-109.3776 158.256,-99.748 148.7969,-104.5205 153.8376,-109.3776"/>
</g>
<!-- 339&#45;&gt;Benign Or Malign -->
<g id="edge27" class="edge">
<title>339&#45;&gt;Benign Or Malign</title>
<path fill="none" stroke="#00ff00" stroke-width=".9192" d="M270.5903,-155.6829C262.0874,-144.1593 250.4474,-128.3842 239.0011,-112.8717"/>
<polygon fill="#00ff00" stroke="#00ff00" stroke-width=".9192" points="241.8045,-110.776 233.0507,-104.8075 236.1718,-114.9322 241.8045,-110.776"/>
</g>
</g>
</svg>
